<mxfile host="app.diagrams.net" agent="Mozilla/5.0 (Windows NT 10.0; Win64; x64) AppleWebKit/537.36 (KHTML, like Gecko) Chrome/129.0.0.0 Safari/537.36 Edg/129.0.0.0" version="24.7.16">
  <diagram id="C5RBs43oDa-KdzZeNtuy" name="Page-1">
    <mxGraphModel dx="1701" dy="938" grid="1" gridSize="10" guides="1" tooltips="1" connect="1" arrows="1" fold="1" page="1" pageScale="1" pageWidth="827" pageHeight="1169" math="0" shadow="0">
      <root>
        <mxCell id="WIyWlLk6GJQsqaUBKTNV-0" />
        <mxCell id="WIyWlLk6GJQsqaUBKTNV-1" parent="WIyWlLk6GJQsqaUBKTNV-0" />
        <mxCell id="LOx4cugS0IK0pxGrO0ZE-1" value="&lt;span style=&quot;color: rgb(29, 33, 37); font-family: -apple-system, BlinkMacSystemFont, &amp;quot;Segoe UI&amp;quot;, Roboto, &amp;quot;Helvetica Neue&amp;quot;, Arial, &amp;quot;Noto Sans&amp;quot;, &amp;quot;Liberation Sans&amp;quot;, sans-serif, &amp;quot;Apple Color Emoji&amp;quot;, &amp;quot;Segoe UI Emoji&amp;quot;, &amp;quot;Segoe UI Symbol&amp;quot;, &amp;quot;Noto Color Emoji&amp;quot;; font-size: 15px; text-align: left; background-color: rgb(255, 255, 255);&quot;&gt;A farmer has a fox, a chicken and a bag of corn. When he is present he can stop the fox eating the chicken and the chicken eating the corn (the fox doesnâ€™t like corn). However, he has a river to cross and his boat will carry only him and one of the fox, chicken or corn at a time. Think of an algorithm to enable him to transport the fox, chicken and corn across the river.&lt;/span&gt;" style="text;html=1;align=center;verticalAlign=middle;whiteSpace=wrap;rounded=0;" vertex="1" parent="WIyWlLk6GJQsqaUBKTNV-1">
          <mxGeometry x="20" y="30" width="750" height="110" as="geometry" />
        </mxCell>
        <mxCell id="LOx4cugS0IK0pxGrO0ZE-11" value="" style="edgeStyle=orthogonalEdgeStyle;rounded=0;orthogonalLoop=1;jettySize=auto;html=1;" edge="1" parent="WIyWlLk6GJQsqaUBKTNV-1" source="LOx4cugS0IK0pxGrO0ZE-3" target="LOx4cugS0IK0pxGrO0ZE-10">
          <mxGeometry relative="1" as="geometry" />
        </mxCell>
        <mxCell id="LOx4cugS0IK0pxGrO0ZE-3" value="Start" style="strokeWidth=2;html=1;shape=mxgraph.flowchart.start_1;whiteSpace=wrap;" vertex="1" parent="WIyWlLk6GJQsqaUBKTNV-1">
          <mxGeometry x="50" y="140" width="100" height="60" as="geometry" />
        </mxCell>
        <mxCell id="LOx4cugS0IK0pxGrO0ZE-13" value="" style="edgeStyle=orthogonalEdgeStyle;rounded=0;orthogonalLoop=1;jettySize=auto;html=1;" edge="1" parent="WIyWlLk6GJQsqaUBKTNV-1" source="LOx4cugS0IK0pxGrO0ZE-10" target="LOx4cugS0IK0pxGrO0ZE-12">
          <mxGeometry relative="1" as="geometry" />
        </mxCell>
        <mxCell id="LOx4cugS0IK0pxGrO0ZE-10" value="Transport chicken" style="whiteSpace=wrap;html=1;strokeWidth=2;" vertex="1" parent="WIyWlLk6GJQsqaUBKTNV-1">
          <mxGeometry x="40" y="230" width="120" height="60" as="geometry" />
        </mxCell>
        <mxCell id="LOx4cugS0IK0pxGrO0ZE-15" value="" style="edgeStyle=orthogonalEdgeStyle;rounded=0;orthogonalLoop=1;jettySize=auto;html=1;" edge="1" parent="WIyWlLk6GJQsqaUBKTNV-1" source="LOx4cugS0IK0pxGrO0ZE-12" target="LOx4cugS0IK0pxGrO0ZE-14">
          <mxGeometry relative="1" as="geometry" />
        </mxCell>
        <mxCell id="LOx4cugS0IK0pxGrO0ZE-12" value="Return" style="whiteSpace=wrap;html=1;strokeWidth=2;" vertex="1" parent="WIyWlLk6GJQsqaUBKTNV-1">
          <mxGeometry x="40" y="310" width="120" height="60" as="geometry" />
        </mxCell>
        <mxCell id="LOx4cugS0IK0pxGrO0ZE-17" value="" style="edgeStyle=orthogonalEdgeStyle;rounded=0;orthogonalLoop=1;jettySize=auto;html=1;" edge="1" parent="WIyWlLk6GJQsqaUBKTNV-1" source="LOx4cugS0IK0pxGrO0ZE-14" target="LOx4cugS0IK0pxGrO0ZE-16">
          <mxGeometry relative="1" as="geometry" />
        </mxCell>
        <mxCell id="LOx4cugS0IK0pxGrO0ZE-14" value="Transport fox" style="whiteSpace=wrap;html=1;strokeWidth=2;" vertex="1" parent="WIyWlLk6GJQsqaUBKTNV-1">
          <mxGeometry x="40" y="400" width="120" height="60" as="geometry" />
        </mxCell>
        <mxCell id="LOx4cugS0IK0pxGrO0ZE-20" value="" style="edgeStyle=orthogonalEdgeStyle;rounded=0;orthogonalLoop=1;jettySize=auto;html=1;" edge="1" parent="WIyWlLk6GJQsqaUBKTNV-1" source="LOx4cugS0IK0pxGrO0ZE-16" target="LOx4cugS0IK0pxGrO0ZE-19">
          <mxGeometry relative="1" as="geometry" />
        </mxCell>
        <mxCell id="LOx4cugS0IK0pxGrO0ZE-16" value="Return with chicken" style="whiteSpace=wrap;html=1;strokeWidth=2;" vertex="1" parent="WIyWlLk6GJQsqaUBKTNV-1">
          <mxGeometry x="40" y="494.5" width="120" height="60" as="geometry" />
        </mxCell>
        <mxCell id="LOx4cugS0IK0pxGrO0ZE-24" value="" style="edgeStyle=orthogonalEdgeStyle;rounded=0;orthogonalLoop=1;jettySize=auto;html=1;" edge="1" parent="WIyWlLk6GJQsqaUBKTNV-1" source="LOx4cugS0IK0pxGrO0ZE-19" target="LOx4cugS0IK0pxGrO0ZE-23">
          <mxGeometry relative="1" as="geometry" />
        </mxCell>
        <mxCell id="LOx4cugS0IK0pxGrO0ZE-19" value="Transport corn" style="whiteSpace=wrap;html=1;strokeWidth=2;" vertex="1" parent="WIyWlLk6GJQsqaUBKTNV-1">
          <mxGeometry x="40" y="580" width="120" height="60" as="geometry" />
        </mxCell>
        <mxCell id="LOx4cugS0IK0pxGrO0ZE-27" value="" style="edgeStyle=orthogonalEdgeStyle;rounded=0;orthogonalLoop=1;jettySize=auto;html=1;" edge="1" parent="WIyWlLk6GJQsqaUBKTNV-1" source="LOx4cugS0IK0pxGrO0ZE-23" target="LOx4cugS0IK0pxGrO0ZE-26">
          <mxGeometry relative="1" as="geometry" />
        </mxCell>
        <mxCell id="LOx4cugS0IK0pxGrO0ZE-23" value="Return." style="whiteSpace=wrap;html=1;strokeWidth=2;" vertex="1" parent="WIyWlLk6GJQsqaUBKTNV-1">
          <mxGeometry x="40" y="660" width="120" height="60" as="geometry" />
        </mxCell>
        <mxCell id="LOx4cugS0IK0pxGrO0ZE-29" value="" style="edgeStyle=orthogonalEdgeStyle;rounded=0;orthogonalLoop=1;jettySize=auto;html=1;" edge="1" parent="WIyWlLk6GJQsqaUBKTNV-1" source="LOx4cugS0IK0pxGrO0ZE-26" target="LOx4cugS0IK0pxGrO0ZE-28">
          <mxGeometry relative="1" as="geometry" />
        </mxCell>
        <mxCell id="LOx4cugS0IK0pxGrO0ZE-26" value="Transport chicken" style="whiteSpace=wrap;html=1;strokeWidth=2;" vertex="1" parent="WIyWlLk6GJQsqaUBKTNV-1">
          <mxGeometry x="40" y="740" width="120" height="60" as="geometry" />
        </mxCell>
        <mxCell id="LOx4cugS0IK0pxGrO0ZE-28" value="End." style="ellipse;whiteSpace=wrap;html=1;strokeWidth=2;" vertex="1" parent="WIyWlLk6GJQsqaUBKTNV-1">
          <mxGeometry x="60" y="840" width="80" height="80" as="geometry" />
        </mxCell>
        <mxCell id="LOx4cugS0IK0pxGrO0ZE-30" value="Pseudocode:&lt;div&gt;...&lt;/div&gt;" style="text;html=1;align=center;verticalAlign=middle;whiteSpace=wrap;rounded=0;" vertex="1" parent="WIyWlLk6GJQsqaUBKTNV-1">
          <mxGeometry x="470" y="220" width="60" height="30" as="geometry" />
        </mxCell>
      </root>
    </mxGraphModel>
  </diagram>
</mxfile>
